<?xml version="1.0" standalone="no"?>
<!DOCTYPE svg PUBLIC "-//W3C//DTD SVG 20010904//EN"
 "http://www.w3.org/TR/2001/REC-SVG-20010904/DTD/svg10.dtd">
<svg version="1.0" xmlns="http://www.w3.org/2000/svg"
 width="300.000000pt" height="300.000000pt" viewBox="0 0 300.000000 300.000000"
 preserveAspectRatio="xMidYMid meet">
<metadata>
Created by potrace 1.14, written by Peter Selinger 2001-2017
</metadata>
<g transform="translate(0.000000,300.000000) scale(0.100000,-0.100000)"
fill="#000000" stroke="none">
<path d="M120 1507 l0 -434 258 2 c141 1 271 5 287 10 65 16 143 62 195 115
89 88 128 191 124 320 -5 158 -80 284 -216 364 -82 48 -141 56 -405 56 l-243
0 0 -433z m545 328 c261 -78 318 -459 92 -613 -80 -55 -126 -63 -343 -63 -108
0 -199 2 -202 6 -3 3 -6 157 -6 343 l-1 337 50 5 c99 10 358 0 410 -15z"/>
<path d="M1385 1927 c-147 -39 -256 -137 -310 -280 -21 -56 -24 -80 -22 -160
3 -86 6 -101 40 -170 81 -165 240 -260 415 -251 188 11 345 137 397 318 63
218 -54 443 -274 530 -58 23 -182 29 -246 13z m246 -110 c213 -102 269 -373
113 -546 -139 -154 -385 -153 -519 1 -169 195 -73 506 177 569 63 15 168 4
229 -24z"/>
<path d="M2320 1753 c-56 -98 -114 -198 -127 -223 -14 -25 -49 -85 -78 -135
-29 -49 -85 -145 -124 -212 l-70 -123 504 0 c278 0 505 2 505 5 0 3 -49 90
-108 193 -60 103 -171 296 -248 429 -76 133 -142 243 -145 243 -3 0 -52 -80
-109 -177z m245 -240 c72 -124 143 -249 158 -277 16 -28 34 -57 39 -63 6 -7 9
-14 7 -14 -9 -3 -679 -4 -679 -1 0 8 335 582 339 582 3 0 65 -102 136 -227z"/>
</g>
</svg>
